<svg width="105" height="49" viewBox="0 0 105 49" fill="none" xmlns="http://www.w3.org/2000/svg">
<path fill-rule="evenodd" clip-rule="evenodd" d="M27.2918 48.8956V45.3099H27.8816V48.3554H30.6352V48.8956H27.2918ZM39.7636 47.0971C39.7636 46.5321 39.5172 46.0469 39.0412 45.6807C38.6471 45.3822 38.0858 45.1968 37.48 45.1968C36.8681 45.1968 36.3122 45.3822 35.9134 45.6807C35.4321 46.0469 35.1851 46.5254 35.1851 47.0971C35.1851 47.6807 35.4261 48.1593 35.9034 48.5207C36.2916 48.8146 36.8575 49 37.48 49C38.0998 49 38.6517 48.8233 39.0452 48.5248C39.5239 48.1653 39.7636 47.6807 39.7636 47.0971ZM39.1504 47.097C39.1504 47.8996 38.4986 48.4525 37.48 48.4525C36.456 48.4525 35.7996 47.9043 35.7996 47.097C35.7996 46.3146 36.4847 45.7389 37.48 45.7389C37.9274 45.7389 38.3322 45.8708 38.6178 46.0783C38.972 46.34 39.1504 46.6814 39.1504 47.097ZM48.4199 48.8956L45.6916 45.9578V48.8956H45.1017V45.3099H45.834L48.557 48.251V45.3099H49.1489V48.8956H48.4199ZM56.929 45.3092H54.6727V48.8962H57.0422C57.5615 48.8962 58.0282 48.7236 58.3731 48.4183C58.7512 48.0883 58.9476 47.6472 58.9476 47.1432C58.9476 46.0355 58.1747 45.3092 56.929 45.3092ZM57.0921 48.3561H55.2619V45.8494H56.9783C57.7752 45.8494 58.3065 46.3668 58.3065 47.1258C58.3065 47.8481 57.8012 48.3561 57.0921 48.3561ZM68.6425 47.0971C68.6425 46.5321 68.3955 46.0469 67.9175 45.6807C67.5273 45.3822 66.9621 45.1968 66.3569 45.1968C65.7477 45.1968 65.1892 45.3822 64.791 45.6807C64.3084 46.0469 64.0614 46.5254 64.0614 47.0971C64.0614 47.6814 64.303 48.1593 64.7811 48.5207C65.1705 48.8146 65.7358 49 66.3569 49C66.9774 49 67.5293 48.8233 67.9221 48.5248C68.4015 48.1653 68.6425 47.6807 68.6425 47.0971ZM68.026 47.097C68.026 47.8996 67.3782 48.4525 66.3569 48.4525C65.3323 48.4525 64.6779 47.9043 64.6779 47.097C64.6779 46.3146 65.3636 45.7389 66.3569 45.7389C66.8057 45.7389 67.2085 45.8708 67.4974 46.0783C67.8489 46.34 68.026 46.6814 68.026 47.097ZM77.3008 48.8956L74.5705 45.9578V48.8956H73.978V45.3099H74.715L77.438 48.251V45.3099H78.0285V48.8956H77.3008ZM78.9579 11.9103C76.6723 11.9103 74.9973 13.4933 74.426 16.6673H82.5484C82.5484 14.0676 81.4086 11.9103 78.9579 11.9103ZM74.2902 17.743C74.2256 18.1165 74.2256 18.5596 74.2256 18.8929C74.2256 22.8072 76.3707 25.2042 79.1929 25.2042C80.4678 25.2042 81.4732 24.8989 82.2787 24.3896C82.9844 23.9545 83.557 23.3802 83.9904 22.7376L84.796 23.3099C83.0504 25.7751 80.7688 26.2818 78.888 26.2818C74.7969 26.2818 71.4068 23.3099 71.4068 18.7604C71.4068 14.2048 74.4919 11.0335 78.9579 11.0335C83.1196 11.0335 85.065 14.2048 85.065 16.9706V17.743H74.2902ZM67.3283 13.4933C67.1618 13.4264 66.6559 13.1212 65.8163 13.1212C64.0048 13.1212 62.9642 14.2704 62.2265 15.4505C61.389 16.7992 60.5488 18.8929 60.5488 21.2845V25.7751H58.1647V11.5368H60.5488V16.6673C61.1187 15.2818 61.8564 13.9337 62.7298 12.988C63.8044 11.7711 64.8783 11.2329 66.1519 11.2329C66.8243 11.2329 67.3929 11.4712 67.9668 11.8086L67.3283 13.4933ZM98.0161 25.9786C96.407 29.2838 94.0248 32.32 90.8997 34.3467C87.5816 36.506 83.4199 37.6185 78.7535 37.6185C71.7044 37.6185 65.2957 35.3226 61.1679 31.002L63.2471 29.824C64.6226 32.0529 67.074 34.008 70.5293 35.2236C72.9487 36.0977 75.7675 36.6071 78.7535 36.6071C83.2188 36.6071 87.0776 35.5596 90.1993 33.5328C93.0502 31.6747 95.0322 29.2189 96.6733 26.3481L89.4584 11.5368H92.413L98.0161 23.4478L103.791 11.5368H105L98.0161 25.9786ZM45.2621 12.0455C42.5778 12.0455 41.1683 14.6058 41.1683 17.172V21.2182C41.1683 23.245 42.376 25.2042 45.0963 25.2042C47.9145 25.2042 49.4911 22.4351 49.4911 18.2517C49.4911 15.01 48.4838 12.0455 45.2621 12.0455ZM45.4639 26.2818C43.1823 26.2818 41.8075 25.2041 41.1683 24.1232V36.1332L38.7856 37.4478V11.5368H41.1683V13.9337C41.874 12.3106 43.1823 11.0341 45.9678 11.0341C50.0603 11.0341 52.4411 14.2048 52.4411 18.4893C52.4411 22.6024 49.5577 26.2818 45.4639 26.2818ZM27.6067 26.2818C25.2246 26.2818 23.648 25.5696 23.0761 25.2042L23.4802 24.3233C24.0841 24.6961 25.5947 25.336 27.4396 25.336C29.6885 25.336 30.8303 24.1914 30.8303 22.8072C30.8303 21.7959 30.4928 21.0542 28.6146 20.1459L26.5002 19.1299C24.0508 17.9491 23.2785 16.6673 23.2785 15.01C23.2785 12.82 24.9895 11.0335 28.4449 11.0335C30.5294 11.0335 31.7697 11.6064 32.542 11.9739L32.1379 12.82C31.1978 12.413 30.1233 11.9739 28.5148 11.9739C26.8677 11.9739 25.4909 12.7524 25.4909 14.2048C25.4909 15.4505 26.3004 16.0904 27.8763 16.7992L30.1233 17.8126C32.6432 18.9605 33.1452 20.5141 33.1452 21.9311C33.1452 24.3233 31.1312 26.2818 27.6067 26.2818ZM8.76015 5.46452L4.26423 18.4183H13.1229L8.76015 5.46452ZM14.6662 25.7751V25.5388C15.0363 25.4411 15.2034 25.2684 15.2034 25.0321C15.2034 24.8668 15.1695 24.5623 15.0363 24.1914L13.4578 19.504H3.8934L2.41607 23.7169C2.28291 24.1232 2.11647 24.5623 2.11647 24.8989C2.11647 25.168 2.35016 25.407 2.65241 25.5388V25.7751H0V25.5388C0.537273 25.2999 0.739001 25.0007 1.00597 24.2604L9.43125 0L18.1561 24.5308C18.3246 25.0321 18.5935 25.2363 19.0955 25.5388V25.7751H14.6662Z" fill="#512D6D"/>
</svg>
