<svg width="72" height="50" viewBox="0 0 72 50" fill="none" xmlns="http://www.w3.org/2000/svg">
<g clip-path="url(#clip0)">
<path d="M71.446 48.562H27.4706H10.1685H0.553711" stroke="white" stroke-linecap="round" stroke-linejoin="round"/>
<path d="M71.446 48.562V36.4439V11.0445V0.920166H57.4226H12.8934H0.553711V48.562H71.446Z" stroke="#512D6D" stroke-linecap="round" stroke-linejoin="round"/>
<path d="M26.3962 28.1028L0.553711 48.5619" stroke="#512D6D" stroke-miterlimit="10"/>
<path d="M71.4462 48.5618L45.6924 28.1692" stroke="#512D6D" stroke-miterlimit="10"/>
<path d="M0.775391 1.1416L25.6652 22.4314" stroke="#512D6D" stroke-miterlimit="10"/>
<path d="M71.2579 1.04199L46.3569 22.1214" stroke="#512D6D" stroke-miterlimit="10"/>
<path d="M46.3569 22.1213C46.6927 22.7854 46.8593 23.5222 46.8419 24.2661C46.8245 25.0101 46.6236 25.7382 46.2572 26.3859C45.9441 26.9334 45.7515 27.5414 45.6923 28.1693C45.6535 28.4931 45.6535 28.8203 45.6923 29.1441C45.8273 30.3042 45.5101 31.4718 44.8067 32.4042C44.1033 33.3366 43.0677 33.9621 41.9151 34.1508C40.9645 34.2927 40.0859 34.7398 39.4117 35.4247C38.5907 36.2512 37.4816 36.7279 36.317 36.7547C35.1523 36.7816 34.0225 36.3565 33.1643 35.5687C32.4435 34.919 31.5368 34.5121 30.5723 34.4056C29.4177 34.269 28.3598 33.6938 27.6176 32.7989C26.8753 31.9041 26.5055 30.7582 26.5846 29.5982C26.6175 29.0778 26.5536 28.5557 26.3963 28.0585C26.2755 27.6247 26.0927 27.2106 25.8535 26.829C25.4356 26.1721 25.1982 25.4167 25.1651 24.6389C25.1321 23.861 25.3046 23.0882 25.6652 22.3982C25.9933 21.7201 26.4889 21.1368 27.1052 20.7035C27.898 20.1685 28.4965 19.3913 28.8111 18.4881C29.1841 17.3865 29.9694 16.4723 31.0021 15.9374C32.0348 15.4025 33.2345 15.2884 34.3495 15.6191C35.2636 15.9177 36.249 15.9177 37.1631 15.6191C38.263 15.2267 39.4724 15.2763 40.5365 15.7578C41.6006 16.2392 42.4363 17.1147 42.8677 18.2001C43.255 19.0774 43.9053 19.8128 44.7286 20.3047C45.4284 20.7486 45.9919 21.3773 46.3569 22.1213V22.1213Z" stroke="#817C89" stroke-linecap="round" stroke-linejoin="round"/>
<path d="M43.2001 24.8018C43.2613 25.168 43.2946 25.5383 43.2998 25.9095C43.2998 26.0203 43.2998 26.131 43.2998 26.2418C43.1973 28.0967 42.3882 29.8419 41.0388 31.1188C39.6894 32.3957 37.9022 33.1072 36.0445 33.1072C34.1867 33.1072 32.3995 32.3957 31.0501 31.1188C29.7007 29.8419 28.8916 28.0967 28.7891 26.2418V25.1341C28.989 23.3863 29.8161 21.7704 31.1171 20.5862C32.418 19.402 34.1043 18.73 35.8632 18.6948C37.622 18.6596 39.3339 19.2637 40.6811 20.3949C42.0283 21.5262 42.9194 23.1077 43.1891 24.8461L43.2001 24.8018Z" stroke="#817C89" stroke-linecap="round" stroke-linejoin="round"/>
</g>
<defs>
<clipPath id="clip0">
<rect width="72" height="48.7495" fill="white" transform="translate(0 0.366211)"/>
</clipPath>
</defs>
</svg>
