<svg width="15" height="16" viewBox="0 0 15 16" fill="none" xmlns="http://www.w3.org/2000/svg">
<path fill-rule="evenodd" clip-rule="evenodd" d="M0 15C0 14.7239 0.223858 14.5 0.5 14.5H14.5C14.7761 14.5 15 14.7239 15 15C15 15.2761 14.7761 15.5 14.5 15.5H0.5C0.223858 15.5 0 15.2761 0 15Z" fill="#817C89"/>
<path fill-rule="evenodd" clip-rule="evenodd" d="M4.5 1.5C4.5 1.22386 4.72386 1 5 1H10C10.2761 1 10.5 1.22386 10.5 1.5C10.5 1.77614 10.2761 2 10 2H5C4.72386 2 4.5 1.77614 4.5 1.5Z" fill="#817C89"/>
<path fill-rule="evenodd" clip-rule="evenodd" d="M7 4.6V2H8V4.6H7Z" fill="#817C89"/>
<path fill-rule="evenodd" clip-rule="evenodd" d="M0.5 11.1C0.5 7.22386 3.62386 4.1 7.5 4.1C11.3761 4.1 14.5 7.22386 14.5 11.1C14.5 11.3761 14.2761 11.6 14 11.6H1C0.723858 11.6 0.5 11.3761 0.5 11.1ZM1.52035 10.6H13.4797C13.2271 7.51182 10.6554 5.1 7.5 5.1C4.34456 5.1 1.77286 7.51182 1.52035 10.6Z" fill="#817C89"/>
</svg>
