<svg width="72" height="98" viewBox="0 0 72 98" fill="none" xmlns="http://www.w3.org/2000/svg">
<g clip-path="url(#clip0)">
<path d="M66.7939 52.3938C67.1263 52.5046 67.4586 52.5046 67.7909 52.5046C69.7847 52.5046 71.4463 50.8431 71.4463 48.8492C71.4463 46.8554 69.7847 45.1938 67.7909 45.1938C67.4586 45.1938 67.1263 45.3046 66.7939 45.3046" stroke="#817C89" stroke-miterlimit="10" stroke-linecap="round" stroke-linejoin="round"/>
<path d="M48.8489 92.1601L48.4058 94.7078C48.295 95.0401 47.9627 95.3724 47.4089 95.5939C45.9689 96.037 42.3135 96.7016 34.1166 96.7016C25.6981 96.7016 21.8212 95.9262 20.1597 95.4832C19.6058 95.2616 19.1627 94.9293 19.052 94.597L18.6089 92.0493" stroke="#817C89" stroke-miterlimit="10" stroke-linecap="round" stroke-linejoin="round"/>
<path d="M18.7197 5.09549L19.1628 2.5478C19.2736 2.21549 19.6059 1.88319 20.1597 1.66165C21.5997 1.21857 25.2551 0.553955 33.452 0.553955C41.8705 0.553955 45.7474 1.32934 47.409 1.77242C47.9628 1.99396 48.4059 2.32626 48.5166 2.65857L48.9597 5.20626" stroke="#817C89" stroke-miterlimit="10" stroke-linecap="round" stroke-linejoin="round"/>
<path d="M48.7383 15.6185C48.7383 16.0615 48.406 16.2831 48.0737 16.1723C46.0799 15.2862 41.4276 13.1815 34.006 13.1815C33.8952 13.1815 33.8952 13.1815 33.7845 13.1815C33.6737 13.1815 33.6737 13.1815 33.5629 13.1815C26.0306 13.2923 21.4891 15.2862 19.4952 16.1723C19.1629 16.2831 18.7199 16.0615 18.7199 15.6185V4.98462L14.6214 7.31077C14.6214 7.31077 10.7445 22.1538 5.53833 31.2369C5.34786 31.5692 5.20602 31.7908 4.98448 32.1231C4.81939 32.3707 4.65217 32.6769 4.65217 32.6769C2.10448 37.44 0.553711 42.8677 0.553711 48.6277C0.553711 54.3877 1.99371 59.9262 4.65217 64.6892C4.65217 64.6892 4.87371 65.1323 4.98448 65.3538C5.20602 65.5754 5.53833 66.1292 5.53833 66.1292C10.7445 75.1015 14.6214 89.9446 14.6214 89.9446L18.7199 92.2708V81.5262C18.7199 81.1938 19.0522 80.9723 19.3845 81.0831C21.3783 81.9692 26.0306 84.0738 33.5629 84.1846C33.6737 84.1846 33.6737 84.1846 33.7845 84.1846C33.8952 84.1846 33.8952 84.1846 34.006 84.1846C41.5383 84.0738 46.1906 81.9692 48.1845 81.0831C48.5168 80.9723 48.8491 81.1938 48.8491 81.5262V92.2708L52.9476 89.9446C52.9476 89.9446 56.8245 75.1015 62.0306 66.1292C62.0306 66.1292 62.3629 65.5754 62.4737 65.3538C62.5845 65.1323 62.806 64.6892 62.806 64.6892C64.9106 60.9231 66.2399 56.8246 66.6829 52.3938C66.7937 51.1754 66.9045 49.9569 66.9045 48.7385C66.9045 47.6308 66.7937 46.5231 66.6829 45.4154C66.2399 40.8738 64.9106 36.5538 62.806 32.7877C62.806 32.7877 62.5845 32.3446 62.4737 32.2338C62.2522 31.9015 62.1414 31.68 61.9199 31.3477C56.7137 22.3754 52.8368 7.42154 52.8368 7.42154L48.7383 5.09539V15.6185Z" stroke="#512D6D" stroke-miterlimit="10" stroke-linecap="round" stroke-linejoin="round"/>
<path d="M4.09814 48.8492C4.09814 65.2431 17.3905 78.5354 33.7843 78.5354C50.1781 78.5354 63.4705 65.2431 63.4705 48.8492C63.4705 32.4554 50.1781 19.1631 33.7843 19.1631C17.3905 19.1631 4.09814 32.5662 4.09814 48.8492Z" stroke="#817C89" stroke-miterlimit="10" stroke-linecap="round" stroke-linejoin="round"/>
<path d="M30.5723 51.5079L31.7907 50.511" stroke="#512D6D" stroke-linecap="round"/>
<path d="M49.5138 36.3325L35.8892 47.1879" stroke="#512D6D" stroke-linecap="round"/>
<path d="M35.7783 50.511L37.1076 51.7294" stroke="#512D6D" stroke-linecap="round"/>
<path d="M31.7907 47.0771L21.3784 37.8833" stroke="#512D6D" stroke-linecap="round"/>
<path d="M34.0063 46.1909L34.1171 44.3079" stroke="#817C89" stroke-width="0.5" stroke-linecap="round"/>
<path d="M33.5633 51.3972L31.6802 73.9941" stroke="#817C89" stroke-width="0.5" stroke-linecap="round"/>
<path d="M33.6736 49.8462C33.0275 49.8462 32.5659 49.3847 32.5659 48.7386C32.5659 48.0924 33.0275 47.6309 33.6736 47.6309C34.3198 47.6309 34.7813 48.0924 34.7813 48.7386C34.7813 49.3847 34.3198 49.8462 33.6736 49.8462Z" fill="#817C89"/>
</g>
<defs>
<clipPath id="clip0">
<rect width="72" height="97.3661" fill="white"/>
</clipPath>
</defs>
</svg>
