<svg width="72" height="83" viewBox="0 0 72 83" fill="none" xmlns="http://www.w3.org/2000/svg">
<g clip-path="url(#clip0)">
<path d="M42.8456 22.6301L43.1557 22.9735C43.6115 23.5106 44.1411 23.9805 44.7286 24.3692C45.936 25.1556 45.8363 26.6843 44.4739 27.9249C43.069 29.284 41.5577 30.5286 39.9545 31.6467C38.2597 32.5661 39.1459 28.523 38.2597 27.2824C37.5423 26.2594 36.9718 25.1408 36.5649 23.9593C36.0512 23.0383 35.9199 21.9523 36.1994 20.9353C37.0203 19.9457 38.0198 19.1191 39.1459 18.4984" stroke="#817C89" stroke-linecap="round" stroke-linejoin="round"/>
<path d="M24.6131 49.2924H24.7461C25.0191 49.305 25.2901 49.3458 25.5547 49.4142V49.4142C26.1441 49.5741 26.6906 49.8631 27.1547 50.2602C27.6187 50.6573 27.9887 51.1526 28.2378 51.7102C28.4869 52.2678 28.609 52.8738 28.5951 53.4844C28.5813 54.095 28.4319 54.6949 28.1577 55.2407L25.3774 60.7791C25.0085 61.4909 24.44 62.0796 23.7416 62.4731C23.0431 62.8666 22.245 63.0478 21.4451 62.9945L18.7313 62.8173C17.6799 62.7539 16.6443 63.0967 15.8383 63.7749C15.0323 64.4531 14.5175 65.4148 14.4002 66.4616L14.1565 68.3447C14.0845 68.7885 14.0845 69.2411 14.1565 69.685L15.3639 75.3231" stroke="#817C89" stroke-linecap="round" stroke-linejoin="round"/>
<path d="M20.4146 49.0265L18.0773 48.8714C17.3961 48.83 16.7359 48.6201 16.1559 48.2605C15.5758 47.9009 15.0942 47.4028 14.7542 46.8111L14.5659 46.4788C14.361 46.1351 14.2115 45.7613 14.1229 45.3711C13.8902 44.352 13.1149 41.4055 13.0152 41.184C11.9075 39.168 11.3536 37.3403 9.23794 37.1631L2.80225 35.1803" stroke="#817C89" stroke-linecap="round" stroke-linejoin="round"/>
<path d="M55.5063 76.2424L44.6952 74.0271C43.7132 73.8211 42.6898 73.9786 41.8152 74.4701L35.8669 77.7932C35.4381 78.037 34.9692 78.2021 34.4823 78.2806L23.7266 79.9975" stroke="#817C89" stroke-linecap="round" stroke-linejoin="round"/>
<path d="M52.6486 15.707C51.4357 16.2678 50.4711 17.2546 49.9381 18.4799C49.4051 19.7052 49.3408 21.0836 49.7575 22.3532C50.3047 24.4385 50.2315 26.6383 49.5467 28.6826C48.862 30.7269 47.5956 32.527 45.9027 33.8621L43.3107 36.2326C41.7046 37.6947 41.2947 39.3784 42.203 40.475L42.8234 41.2836C43.3307 41.8076 43.9963 42.1502 44.7175 42.2584L47.8412 42.8787C48.2805 42.9605 48.7034 43.1139 49.0929 43.3329L56.1267 47.4756C57.4006 48.2178 57.6332 49.5913 56.7249 51.0313L55.6172 52.859C54.587 54.4984 55.0412 56.027 56.7249 56.6806L57.7661 57.0793C58.8518 57.3719 59.9853 57.4423 61.0988 57.2862C62.2123 57.1301 63.2828 56.7508 64.2461 56.171L70.8923 52.3495" stroke="#817C89" stroke-linecap="round" stroke-linejoin="round"/>
<path d="M35.1471 11.4425C26.3108 11.6672 17.8794 15.1945 11.5154 21.3288C5.15146 27.4631 1.31679 35.7592 0.767565 44.5813C0.21834 53.4033 2.99442 62.111 8.54841 68.9872C14.1024 75.8635 22.0312 80.4093 30.7713 81.7283C39.5115 83.0472 48.4286 81.0436 55.7645 76.1126C63.1003 71.1815 68.3224 63.6808 70.401 55.0896C72.4796 46.4983 71.2638 37.4401 66.9935 29.701C62.7231 21.9618 55.7081 16.1036 47.3317 13.2813" stroke="#512D6D" stroke-linecap="round" stroke-linejoin="round"/>
<path d="M22.5637 23.5053C24.8084 23.5199 26.9563 24.4211 28.5394 26.0125C30.1225 27.6039 31.0125 29.7565 31.0154 32.0013C31.0154 35.1804 29.8191 37.0634 28.1797 39.6554C26.241 42.5355 24.6777 45.6511 23.5274 48.9268C23.1618 49.9791 22.8295 51.0647 22.5305 52.2499C22.1981 51.0093 21.8215 49.8351 21.4228 48.6942C20.2788 45.5267 18.7537 42.51 16.8812 39.7108C15.2308 37.1077 14.0345 35.2247 14.0345 32.0456C14.0374 29.7932 14.9334 27.6339 16.5261 26.0412C18.1188 24.4486 20.2781 23.5525 22.5305 23.5496L22.5637 23.5053ZM22.5305 22.4419C19.9834 22.4419 17.5407 23.4537 15.7396 25.2547C13.9386 27.0558 12.9268 29.4985 12.9268 32.0456C12.9268 38.3484 17.136 39.9434 20.3815 49.0708C21.3212 51.7698 22.0399 54.5408 22.5305 57.3564C23.0003 54.6331 23.6856 51.9515 24.5797 49.3367C27.8695 39.877 32.1231 38.3594 32.1231 32.0013C32.1231 29.4561 31.1128 27.0151 29.3141 25.2144C27.5155 23.4136 25.0756 22.4005 22.5305 22.3976V22.4419Z" fill="#512D6D"/>
<path d="M22.5638 29.0326C23.151 29.0326 23.7249 29.2067 24.2131 29.5329C24.7013 29.8591 25.0818 30.3228 25.3065 30.8652C25.5312 31.4076 25.5899 32.0045 25.4754 32.5804C25.3609 33.1562 25.0781 33.6852 24.663 34.1004C24.2478 34.5155 23.7188 34.7983 23.143 34.9128C22.5671 35.0274 21.9702 34.9686 21.4278 34.7439C20.8853 34.5192 20.4217 34.1387 20.0955 33.6505C19.7693 33.1623 19.5952 32.5884 19.5952 32.0012C19.5952 31.2139 19.908 30.4588 20.4647 29.9021C21.0214 29.3454 21.7765 29.0326 22.5638 29.0326ZM22.5638 27.9249C21.7553 27.914 20.9618 28.1437 20.2843 28.5848C19.6067 29.026 19.0756 29.6587 18.7586 30.4025C18.4415 31.1464 18.3528 31.9677 18.5038 32.762C18.6548 33.5563 19.0386 34.2878 19.6064 34.8635C20.1742 35.4391 20.9004 35.8329 21.6926 35.9947C22.4848 36.1565 23.3072 36.0791 24.0553 35.7723C24.8034 35.4654 25.4433 34.9431 25.8937 34.2716C26.3441 33.6001 26.5847 32.8098 26.5847 32.0012C26.5848 30.9221 26.1568 29.8869 25.3947 29.1228C24.6327 28.3586 23.5987 27.9279 22.5195 27.9249H22.5638Z" fill="#512D6D"/>
<path d="M41.76 1.10769C43.4542 1.11062 45.0782 1.78494 46.2761 2.98292C47.4741 4.1809 48.1484 5.80488 48.1514 7.49908C48.1285 9.37346 47.5119 11.1923 46.3901 12.6942L45.9803 13.3477C44.1285 16.1011 42.7124 19.1238 41.7821 22.3089V22.4086C41.3566 20.9121 40.8197 19.4496 40.176 18.0332C39.4273 16.4117 38.5571 14.8491 37.5729 13.3588C37.0542 12.5894 36.5808 11.7905 36.1551 10.9662C35.6188 9.89021 35.3491 8.7011 35.3686 7.49908C35.3715 5.80488 36.0459 4.1809 37.2438 2.98292C38.4418 1.78494 40.0658 1.11062 41.76 1.10769ZM41.76 0C39.7711 0 37.8637 0.790079 36.4573 2.19643C35.051 3.60278 34.2609 5.5102 34.2609 7.49908C34.2441 8.86472 34.5476 10.2153 35.1471 11.4425C36.0997 13.4252 37.6615 15.2197 39.1458 18.4874C40.3832 21.2976 41.2615 24.2526 41.76 27.2825C42.0465 25.7131 42.4162 24.1602 42.8677 22.6302C43.834 19.2965 45.33 16.1399 47.2985 13.2812C48.5288 11.6023 49.2028 9.58041 49.2258 7.49908C49.2259 5.51594 48.4403 3.61354 47.0412 2.20814C45.642 0.802745 43.7431 0.00878789 41.76 0Z" fill="#512D6D"/>
<path d="M41.7598 5.42766C42.1726 5.42547 42.5768 5.54602 42.9209 5.774C43.2651 6.00198 43.5337 6.3271 43.6927 6.70807C43.8517 7.08903 43.8938 7.50866 43.8138 7.91365C43.7338 8.31864 43.5353 8.69071 43.2434 8.98261C42.9515 9.27451 42.5794 9.47307 42.1744 9.55307C41.7694 9.63307 41.3498 9.5909 40.9688 9.43191C40.5879 9.27292 40.2627 9.0043 40.0348 8.66014C39.8068 8.31599 39.6862 7.91185 39.6884 7.49904C39.6884 6.94968 39.9067 6.42281 40.2951 6.03435C40.6836 5.64589 41.2104 5.42766 41.7598 5.42766ZM41.7598 4.31997C41.1279 4.31778 40.5096 4.50329 39.9833 4.85299C39.457 5.20268 39.0464 5.7008 38.8036 6.28417C38.5607 6.86755 38.4966 7.5099 38.6194 8.12976C38.7421 8.74962 39.0462 9.31906 39.493 9.76588C39.9398 10.2127 40.5092 10.5168 41.1291 10.6395C41.749 10.7622 42.3913 10.6981 42.9747 10.4553C43.5581 10.2125 44.0562 9.80186 44.4059 9.27555C44.7556 8.74924 44.9411 8.13093 44.9389 7.49904C44.9389 6.6559 44.6039 5.84729 44.0078 5.2511C43.4116 4.6549 42.603 4.31997 41.7598 4.31997Z" fill="#512D6D"/>
</g>
<defs>
<clipPath id="clip0">
<rect width="72" height="82.8665" fill="white"/>
</clipPath>
</defs>
</svg>
